<?xml version="1.0" encoding="UTF-8" standalone="no"?>
<!DOCTYPE svg PUBLIC "-//W3C//DTD SVG 1.1//EN"
 "http://www.w3.org/Graphics/SVG/1.1/DTD/svg11.dtd">
<!-- Generated by graphviz version 2.40.1 (20161225.0304)
 -->
<!-- Title: G Pages: 1 -->
<svg width="288pt" height="220pt"
 viewBox="0.00 0.00 288.00 220.00" xmlns="http://www.w3.org/2000/svg" xmlns:xlink="http://www.w3.org/1999/xlink">
<g id="graph0" class="graph" transform="scale(1 1) rotate(0) translate(4 216)">
<title>G</title>
<polygon fill="#ffffff" stroke="transparent" points="-4,4 -4,-216 284,-216 284,4 -4,4"/>
<g id="clust1" class="cluster">
<title>cluster_G</title>
<path fill="#808080" fill-opacity="0.094118" stroke="#000000" d="M20,-8C20,-8 260,-8 260,-8 266,-8 272,-14 272,-20 272,-20 272,-192 272,-192 272,-198 266,-204 260,-204 260,-204 20,-204 20,-204 14,-204 8,-198 8,-192 8,-192 8,-20 8,-20 8,-14 14,-8 20,-8"/>
</g>
<!-- api_veget -->
<g id="node1" class="node">
<title>api_veget</title>
<ellipse fill="#ffffff" fill-opacity="0.698039" stroke="#000000" cx="130" cy="-178" rx="55.7903" ry="18"/>
<text text-anchor="middle" x="130" y="-174.3" font-family="Times,serif" font-size="14.00" fill="#000000">api_veget</text>
</g>
<!-- api_veget__command_line_runner -->
<g id="node2" class="node">
<title>api_veget__command_line_runner</title>
<ellipse fill="#ffffff" fill-opacity="0.698039" stroke="#000000" cx="130" cy="-106" rx="114.2798" ry="18"/>
<text text-anchor="middle" x="130" y="-102.3" font-family="Times,serif" font-size="14.00" fill="#000000">command_line_runner</text>
</g>
<!-- api_veget&#45;&gt;api_veget__command_line_runner -->
<g id="edge1" class="edge">
<title>api_veget&#45;&gt;api_veget__command_line_runner</title>
<path fill="none" stroke="#838b8b" stroke-dasharray="5,2" d="M124.0476,-159.8314C123.2972,-152.131 123.0763,-142.9743 123.3849,-134.4166"/>
<polygon fill="#838b8b" stroke="#838b8b" points="126.8792,-134.6161 124.024,-124.4133 119.8935,-134.1697 126.8792,-134.6161"/>
</g>
<!-- api_veget&#45;&gt;api_veget__command_line_runner -->
<g id="edge3" class="edge">
<title>api_veget&#45;&gt;api_veget__command_line_runner</title>
<path fill="none" stroke="#000000" d="M135.9524,-159.8314C136.7028,-152.131 136.9237,-142.9743 136.6151,-134.4166"/>
<polygon fill="#000000" stroke="#000000" points="140.1065,-134.1697 135.976,-124.4133 133.1208,-134.6161 140.1065,-134.1697"/>
</g>
<!-- api_veget__get_parser -->
<g id="node3" class="node">
<title>api_veget__get_parser</title>
<ellipse fill="#ffffff" fill-opacity="0.698039" stroke="#000000" cx="166" cy="-34" rx="61.1893" ry="18"/>
<text text-anchor="middle" x="166" y="-30.3" font-family="Times,serif" font-size="14.00" fill="#000000">get_parser</text>
</g>
<!-- api_veget&#45;&gt;api_veget__get_parser -->
<g id="edge2" class="edge">
<title>api_veget&#45;&gt;api_veget__get_parser</title>
<path fill="none" stroke="#838b8b" stroke-dasharray="5,2" d="M179.5703,-169.6597C206.1668,-162.3876 236.7406,-148.8957 253,-124 261.749,-110.6039 260.778,-101.9822 253,-88 244.4033,-72.5461 229.3511,-60.9486 214.1584,-52.544"/>
<polygon fill="#838b8b" stroke="#838b8b" points="215.7382,-49.4208 205.2446,-47.9594 212.5365,-55.6457 215.7382,-49.4208"/>
</g>
<!-- api_veget__command_line_runner&#45;&gt;api_veget__get_parser -->
<g id="edge4" class="edge">
<title>api_veget__command_line_runner&#45;&gt;api_veget__get_parser</title>
<path fill="none" stroke="#000000" d="M139.0843,-87.8314C143.1656,-79.6688 148.065,-69.87 152.5586,-60.8827"/>
<polygon fill="#000000" stroke="#000000" points="155.7016,-62.423 157.0433,-51.9134 149.4406,-59.2924 155.7016,-62.423"/>
</g>
</g>
</svg>
