<?xml version="1.0" encoding="UTF-8" standalone="no"?>
<!DOCTYPE svg PUBLIC "-//W3C//DTD SVG 1.1//EN"
 "http://www.w3.org/Graphics/SVG/1.1/DTD/svg11.dtd">
<!-- Generated by graphviz version 2.40.1 (20161225.0304)
 -->
<!-- Title: G Pages: 1 -->
<svg width="646pt" height="364pt"
 viewBox="0.00 0.00 646.00 364.00" xmlns="http://www.w3.org/2000/svg" xmlns:xlink="http://www.w3.org/1999/xlink">
<g id="graph0" class="graph" transform="scale(1 1) rotate(0) translate(4 360)">
<title>G</title>
<polygon fill="#ffffff" stroke="transparent" points="-4,4 -4,-360 642,-360 642,4 -4,4"/>
<g id="clust1" class="cluster">
<title>cluster_G</title>
<path fill="#808080" fill-opacity="0.094118" stroke="#000000" d="M20,-8C20,-8 618,-8 618,-8 624,-8 630,-14 630,-20 630,-20 630,-336 630,-336 630,-342 624,-348 618,-348 618,-348 20,-348 20,-348 14,-348 8,-342 8,-336 8,-336 8,-20 8,-20 8,-14 14,-8 20,-8"/>
</g>
<!-- veget -->
<g id="node1" class="node">
<title>veget</title>
<ellipse fill="#ffffff" fill-opacity="0.698039" stroke="#000000" cx="287" cy="-322" rx="36.2938" ry="18"/>
<text text-anchor="middle" x="287" y="-318.3" font-family="Times,serif" font-size="14.00" fill="#000000">veget</text>
</g>
<!-- veget__VegET -->
<g id="node2" class="node">
<title>veget__VegET</title>
<ellipse fill="#ffffff" fill-opacity="0.698039" stroke="#000000" cx="287" cy="-250" rx="40.8928" ry="18"/>
<text text-anchor="middle" x="287" y="-246.3" font-family="Times,serif" font-size="14.00" fill="#000000">VegET</text>
</g>
<!-- veget&#45;&gt;veget__VegET -->
<g id="edge1" class="edge">
<title>veget&#45;&gt;veget__VegET</title>
<path fill="none" stroke="#838b8b" stroke-dasharray="5,2" d="M287,-303.8314C287,-296.131 287,-286.9743 287,-278.4166"/>
<polygon fill="#838b8b" stroke="#838b8b" points="290.5001,-278.4132 287,-268.4133 283.5001,-278.4133 290.5001,-278.4132"/>
</g>
<!-- veget__VegET____init__ -->
<g id="node3" class="node">
<title>veget__VegET____init__</title>
<ellipse fill="#ffffff" fill-opacity="0.698039" stroke="#000000" cx="62" cy="-178" rx="46.2923" ry="18"/>
<text text-anchor="middle" x="62" y="-174.3" font-family="Times,serif" font-size="14.00" fill="#000000">__init__</text>
</g>
<!-- veget__VegET&#45;&gt;veget__VegET____init__ -->
<g id="edge2" class="edge">
<title>veget__VegET&#45;&gt;veget__VegET____init__</title>
<path fill="none" stroke="#838b8b" stroke-dasharray="5,2" d="M253.8005,-239.3762C215.1285,-227.0011 151.0202,-206.4865 107.6733,-192.6154"/>
<polygon fill="#838b8b" stroke="#838b8b" points="108.5345,-189.2163 97.9435,-189.5019 106.401,-195.8832 108.5345,-189.2163"/>
</g>
<!-- veget__VegET___day_of_year -->
<g id="node4" class="node">
<title>veget__VegET___day_of_year</title>
<ellipse fill="#ffffff" fill-opacity="0.698039" stroke="#000000" cx="111" cy="-34" rx="71.4873" ry="18"/>
<text text-anchor="middle" x="111" y="-30.3" font-family="Times,serif" font-size="14.00" fill="#000000">_day_of_year</text>
</g>
<!-- veget__VegET&#45;&gt;veget__VegET___day_of_year -->
<g id="edge3" class="edge">
<title>veget__VegET&#45;&gt;veget__VegET___day_of_year</title>
<path fill="none" stroke="#838b8b" stroke-dasharray="5,2" d="M251.7011,-240.7052C227.0133,-232.5736 194.8514,-218.4747 174,-196 138.5666,-157.808 122.2727,-97.4525 115.4184,-62.1957"/>
<polygon fill="#838b8b" stroke="#838b8b" points="118.8173,-61.3239 113.5835,-52.1121 111.9304,-62.5772 118.8173,-61.3239"/>
</g>
<!-- veget__VegET___end_of_month -->
<g id="node5" class="node">
<title>veget__VegET___end_of_month</title>
<ellipse fill="#ffffff" fill-opacity="0.698039" stroke="#000000" cx="247" cy="-106" rx="81.4863" ry="18"/>
<text text-anchor="middle" x="247" y="-102.3" font-family="Times,serif" font-size="14.00" fill="#000000">_end_of_month</text>
</g>
<!-- veget__VegET&#45;&gt;veget__VegET___end_of_month -->
<g id="edge5" class="edge">
<title>veget__VegET&#45;&gt;veget__VegET___end_of_month</title>
<path fill="none" stroke="#838b8b" stroke-dasharray="5,2" d="M274.8264,-232.3265C268.4395,-222.1561 261.1078,-208.8735 257,-196 250.5981,-175.937 248.1579,-152.2278 247.2863,-134.1816"/>
<polygon fill="#838b8b" stroke="#838b8b" points="250.7784,-133.8926 246.9305,-124.0213 243.7827,-134.1377 250.7784,-133.8926"/>
</g>
<!-- veget__VegET___run_water_bal -->
<g id="node6" class="node">
<title>veget__VegET___run_water_bal</title>
<ellipse fill="#ffffff" fill-opacity="0.698039" stroke="#000000" cx="429" cy="-106" rx="82.5854" ry="18"/>
<text text-anchor="middle" x="429" y="-102.3" font-family="Times,serif" font-size="14.00" fill="#000000">_run_water_bal</text>
</g>
<!-- veget__VegET&#45;&gt;veget__VegET___run_water_bal -->
<g id="edge8" class="edge">
<title>veget__VegET&#45;&gt;veget__VegET___run_water_bal</title>
<path fill="none" stroke="#838b8b" stroke-dasharray="5,2" d="M322.5876,-240.8466C347.1849,-232.8106 378.9641,-218.7686 399,-196 414.1477,-178.7863 421.6924,-153.6781 425.4236,-134.3526"/>
<polygon fill="#838b8b" stroke="#838b8b" points="428.9074,-134.7424 427.1282,-124.2981 422.0059,-133.5723 428.9074,-134.7424"/>
</g>
<!-- veget__VegET___soil_water -->
<g id="node7" class="node">
<title>veget__VegET___soil_water</title>
<ellipse fill="#ffffff" fill-opacity="0.698039" stroke="#000000" cx="264" cy="-34" rx="63.8893" ry="18"/>
<text text-anchor="middle" x="264" y="-30.3" font-family="Times,serif" font-size="14.00" fill="#000000">_soil_water</text>
</g>
<!-- veget__VegET&#45;&gt;veget__VegET___soil_water -->
<g id="edge9" class="edge">
<title>veget__VegET&#45;&gt;veget__VegET___soil_water</title>
<path fill="none" stroke="#838b8b" stroke-dasharray="5,2" d="M262.6327,-235.3522C231.32,-214.9324 178.4454,-174.651 157,-124 150.7618,-109.2662 148.6137,-101.6261 157,-88 168.1066,-69.9539 187.3088,-57.7201 206.4082,-49.53"/>
<polygon fill="#838b8b" stroke="#838b8b" points="207.7364,-52.7685 215.7401,-45.8265 205.1542,-46.2622 207.7364,-52.7685"/>
</g>
<!-- veget__VegET___surface_runoff -->
<g id="node8" class="node">
<title>veget__VegET___surface_runoff</title>
<ellipse fill="#ffffff" fill-opacity="0.698039" stroke="#000000" cx="429" cy="-34" rx="83.3857" ry="18"/>
<text text-anchor="middle" x="429" y="-30.3" font-family="Times,serif" font-size="14.00" fill="#000000">_surface_runoff</text>
</g>
<!-- veget__VegET&#45;&gt;veget__VegET___surface_runoff -->
<g id="edge7" class="edge">
<title>veget__VegET&#45;&gt;veget__VegET___surface_runoff</title>
<path fill="none" stroke="#838b8b" stroke-dasharray="5,2" d="M324.8784,-242.9573C380.3786,-230.3094 481.4846,-197.8352 521,-124 528.5497,-109.8932 528.9502,-101.885 521,-88 512.5408,-73.2261 498.2949,-62.0997 483.5085,-53.9061"/>
<polygon fill="#838b8b" stroke="#838b8b" points="484.7747,-50.6223 474.2789,-49.1771 481.5827,-56.8521 484.7747,-50.6223"/>
</g>
<!-- veget__VegET___veg_et -->
<g id="node9" class="node">
<title>veget__VegET___veg_et</title>
<ellipse fill="#ffffff" fill-opacity="0.698039" stroke="#000000" cx="576" cy="-34" rx="46.2923" ry="18"/>
<text text-anchor="middle" x="576" y="-30.3" font-family="Times,serif" font-size="14.00" fill="#000000">_veg_et</text>
</g>
<!-- veget__VegET&#45;&gt;veget__VegET___veg_et -->
<g id="edge4" class="edge">
<title>veget__VegET&#45;&gt;veget__VegET___veg_et</title>
<path fill="none" stroke="#838b8b" stroke-dasharray="5,2" d="M327.4549,-246.3832C368.3985,-241.0237 431.9276,-227.8861 477,-196 524.4699,-162.4177 553.5286,-98.1887 567.0083,-61.499"/>
<polygon fill="#838b8b" stroke="#838b8b" points="570.3583,-62.524 570.3995,-51.9292 563.7603,-60.1858 570.3583,-62.524"/>
</g>
<!-- veget__VegET__run_veg_et -->
<g id="node10" class="node">
<title>veget__VegET__run_veg_et</title>
<ellipse fill="#ffffff" fill-opacity="0.698039" stroke="#000000" cx="328" cy="-178" rx="62.2891" ry="18"/>
<text text-anchor="middle" x="328" y="-174.3" font-family="Times,serif" font-size="14.00" fill="#000000">run_veg_et</text>
</g>
<!-- veget__VegET&#45;&gt;veget__VegET__run_veg_et -->
<g id="edge6" class="edge">
<title>veget__VegET&#45;&gt;veget__VegET__run_veg_et</title>
<path fill="none" stroke="#838b8b" stroke-dasharray="5,2" d="M297.1348,-232.2022C301.8657,-223.8944 307.5959,-213.8316 312.8285,-204.6427"/>
<polygon fill="#838b8b" stroke="#838b8b" points="315.9327,-206.2644 317.8397,-195.8425 309.8498,-202.8005 315.9327,-206.2644"/>
</g>
<!-- veget__VegET___run_water_bal&#45;&gt;veget__VegET___day_of_year -->
<g id="edge10" class="edge">
<title>veget__VegET___run_water_bal&#45;&gt;veget__VegET___day_of_year</title>
<path fill="none" stroke="#000000" d="M371.4126,-92.9613C315.7783,-80.3649 231.7141,-61.3315 174.2452,-48.3197"/>
<polygon fill="#000000" stroke="#000000" points="174.7192,-44.8385 164.1932,-46.0437 173.1734,-51.6657 174.7192,-44.8385"/>
</g>
<!-- veget__VegET___run_water_bal&#45;&gt;veget__VegET___soil_water -->
<g id="edge13" class="edge">
<title>veget__VegET___run_water_bal&#45;&gt;veget__VegET___soil_water</title>
<path fill="none" stroke="#000000" d="M391.9708,-89.8418C367.0918,-78.9855 334.1897,-64.6283 307.9778,-53.1903"/>
<polygon fill="#000000" stroke="#000000" points="309.2159,-49.9119 298.6507,-49.1203 306.4163,-56.3277 309.2159,-49.9119"/>
</g>
<!-- veget__VegET___run_water_bal&#45;&gt;veget__VegET___surface_runoff -->
<g id="edge11" class="edge">
<title>veget__VegET___run_water_bal&#45;&gt;veget__VegET___surface_runoff</title>
<path fill="none" stroke="#000000" d="M429,-87.8314C429,-80.131 429,-70.9743 429,-62.4166"/>
<polygon fill="#000000" stroke="#000000" points="432.5001,-62.4132 429,-52.4133 425.5001,-62.4133 432.5001,-62.4132"/>
</g>
<!-- veget__VegET___run_water_bal&#45;&gt;veget__VegET___veg_et -->
<g id="edge12" class="edge">
<title>veget__VegET___run_water_bal&#45;&gt;veget__VegET___veg_et</title>
<path fill="none" stroke="#000000" d="M462.7248,-89.4817C485.0748,-78.5348 514.4466,-64.1486 537.6805,-52.7687"/>
<polygon fill="#000000" stroke="#000000" points="539.4588,-55.7951 546.8999,-48.2531 536.3797,-49.5086 539.4588,-55.7951"/>
</g>
<!-- veget__VegET__run_veg_et&#45;&gt;veget__VegET___end_of_month -->
<g id="edge14" class="edge">
<title>veget__VegET__run_veg_et&#45;&gt;veget__VegET___end_of_month</title>
<path fill="none" stroke="#000000" d="M308.3922,-160.5708C298.2196,-151.5286 285.6256,-140.3338 274.4969,-130.4417"/>
<polygon fill="#000000" stroke="#000000" points="276.5074,-127.546 266.708,-123.5182 271.8569,-132.7778 276.5074,-127.546"/>
</g>
<!-- veget__VegET__run_veg_et&#45;&gt;veget__VegET___run_water_bal -->
<g id="edge15" class="edge">
<title>veget__VegET__run_veg_et&#45;&gt;veget__VegET___run_water_bal</title>
<path fill="none" stroke="#000000" d="M351.4253,-161.3008C364.7728,-151.7857 381.703,-139.7166 396.3392,-129.2829"/>
<polygon fill="#000000" stroke="#000000" points="398.5362,-132.0151 404.6473,-123.3603 394.4728,-126.3152 398.5362,-132.0151"/>
</g>
</g>
</svg>
